<svg width="53" height="53" viewBox="0 0 53 53" fill="none" xmlns="http://www.w3.org/2000/svg">
<path d="M26.6553 49.2789H26.6597C27.7845 49.2789 28.846 49.2775 29.8441 49.2745C29.9331 49.2799 30.0223 49.2799 30.1113 49.2745C37.6042 49.2303 41.7272 48.8947 44.8542 46.2314C45.3842 45.7898 45.8258 45.326 46.2675 44.8181C49.315 41.2406 49.315 36.3602 49.315 26.6214C49.315 16.8827 49.315 12.0023 46.2675 8.42476C45.8258 7.89476 45.3621 7.4531 44.8542 7.01143C41.2767 3.96393 36.3963 3.96393 26.6575 3.96393C16.9188 3.96393 12.0383 3.96393 8.46083 7.01143C7.93083 7.4531 7.48917 7.91685 7.0475 8.42476C4 12.0023 4 16.8827 4 26.6214C4 36.3602 4 41.2406 7.0475 44.8181C7.48917 45.3481 7.95292 45.7898 8.46083 46.2314C12.0383 49.2789 16.943 49.2789 26.6597 49.2789M26.6597 45.9223C24.9019 45.9223 23.3185 45.9223 21.8853 45.9046L45.9407 21.8271C45.9554 23.2626 45.9613 24.8599 45.9583 26.6192V29.2935L29.3296 45.9201L26.6597 45.9223ZM42.6922 43.6698C40.9145 45.1825 38.3065 45.6793 34.093 45.8428L45.881 34.0525C45.7176 38.2682 45.2207 40.8762 43.708 42.6539C43.3989 43.0294 43.0676 43.3606 42.6922 43.6698ZM24.0252 7.3228L26.6575 7.3206C28.4212 7.31765 30.0208 7.32354 31.4562 7.33826L7.37433 31.4378C7.35667 29.9958 7.35667 28.3947 7.35667 26.6214L7.35888 23.9891L24.0252 7.3228ZM19.2684 7.39789L7.43617 19.2346C7.59738 14.9946 8.09204 12.3755 9.60917 10.5911C9.91833 10.2157 10.2496 9.88447 10.625 9.5753C12.4138 8.05597 15.0218 7.5613 19.2684 7.4001M41.937 9.02543L9.05929 41.8987C8.17154 40.4743 7.74754 38.5862 7.54438 35.9538L35.97 7.5061C38.6134 7.70705 40.5082 8.13547 41.937 9.02543ZM11.4023 44.2329L44.2734 11.3685C45.1523 12.7928 45.5719 14.681 45.775 17.3089L17.3693 45.7412C14.7303 45.5424 12.8333 45.1184 11.4068 44.2395" fill="black"/>
</svg>
