<svg width="48" height="53" viewBox="0 0 48 53" fill="none" xmlns="http://www.w3.org/2000/svg">
<path d="M29 17.25C28.0054 17.25 27.0516 17.6451 26.3483 18.3483C25.6451 19.0516 25.25 20.0054 25.25 21C25.25 21.9946 25.6451 22.9484 26.3483 23.6517C27.0516 24.3549 28.0054 24.75 29 24.75C29.9946 24.75 30.9484 24.3549 31.6517 23.6517C32.3549 22.9484 32.75 21.9946 32.75 21C32.75 20.0054 32.3549 19.0516 31.6517 18.3483C30.9484 17.6451 29.9946 17.25 29 17.25ZM29 27.25C28.0054 27.25 27.0516 27.6451 26.3483 28.3483C25.6451 29.0516 25.25 30.0054 25.25 31C25.25 31.9946 25.6451 32.9484 26.3483 33.6517C27.0516 34.3549 28.0054 34.75 29 34.75C29.9946 34.75 30.9484 34.3549 31.6517 33.6517C32.3549 32.9484 32.75 31.9946 32.75 31C32.75 30.0054 32.3549 29.0516 31.6517 28.3483C30.9484 27.6451 29.9946 27.25 29 27.25ZM19 38.5C18.337 38.5 17.7011 38.7634 17.2322 39.2322C16.7634 39.7011 16.5 40.337 16.5 41C16.5 41.663 16.7634 42.2989 17.2322 42.7678C17.7011 43.2366 18.337 43.5 19 43.5C19.663 43.5 20.2989 43.2366 20.7678 42.7678C21.2366 42.2989 21.5 41.663 21.5 41C21.5 40.337 21.2366 39.7011 20.7678 39.2322C20.2989 38.7634 19.663 38.5 19 38.5ZM19 17.25C18.0054 17.25 17.0516 17.6451 16.3483 18.3483C15.6451 19.0516 15.25 20.0054 15.25 21C15.25 21.9946 15.6451 22.9484 16.3483 23.6517C17.0516 24.3549 18.0054 24.75 19 24.75C19.9946 24.75 20.9484 24.3549 21.6517 23.6517C22.3549 22.9484 22.75 21.9946 22.75 21C22.75 20.0054 22.3549 19.0516 21.6517 18.3483C20.9484 17.6451 19.9946 17.25 19 17.25ZM29 47.25C28.6685 47.25 28.3505 47.3817 28.1161 47.6161C27.8817 47.8505 27.75 48.1685 27.75 48.5C27.75 48.8315 27.8817 49.1495 28.1161 49.3839C28.3505 49.6183 28.6685 49.75 29 49.75C29.3315 49.75 29.6495 49.6183 29.8839 49.3839C30.1183 49.1495 30.25 48.8315 30.25 48.5C30.25 48.1685 30.1183 47.8505 29.8839 47.6161C29.6495 47.3817 29.3315 47.25 29 47.25ZM29 38.5C28.337 38.5 27.7011 38.7634 27.2322 39.2322C26.7634 39.7011 26.5 40.337 26.5 41C26.5 41.663 26.7634 42.2989 27.2322 42.7678C27.7011 43.2366 28.337 43.5 29 43.5C29.663 43.5 30.2989 43.2366 30.7678 42.7678C31.2366 42.2989 31.5 41.663 31.5 41C31.5 40.337 31.2366 39.7011 30.7678 39.2322C30.2989 38.7634 29.663 38.5 29 38.5ZM46.5 29.75C46.1685 29.75 45.8505 29.8817 45.6161 30.1161C45.3817 30.3505 45.25 30.6685 45.25 31C45.25 31.3315 45.3817 31.6495 45.6161 31.8839C45.8505 32.1183 46.1685 32.25 46.5 32.25C46.8315 32.25 47.1495 32.1183 47.3839 31.8839C47.6183 31.6495 47.75 31.3315 47.75 31C47.75 30.6685 47.6183 30.3505 47.3839 30.1161C47.1495 29.8817 46.8315 29.75 46.5 29.75ZM39 8.5C38.337 8.5 37.7011 8.76339 37.2322 9.23223C36.7634 9.70107 36.5 10.337 36.5 11C36.5 11.663 36.7634 12.2989 37.2322 12.7678C37.7011 13.2366 38.337 13.5 39 13.5C39.663 13.5 40.2989 13.2366 40.7678 12.7678C41.2366 12.2989 41.5 11.663 41.5 11C41.5 10.337 41.2366 9.70107 40.7678 9.23223C40.2989 8.76339 39.663 8.5 39 8.5ZM39 18.5C38.337 18.5 37.7011 18.7634 37.2322 19.2322C36.7634 19.7011 36.5 20.337 36.5 21C36.5 21.663 36.7634 22.2989 37.2322 22.7678C37.7011 23.2366 38.337 23.5 39 23.5C39.663 23.5 40.2989 23.2366 40.7678 22.7678C41.2366 22.2989 41.5 21.663 41.5 21C41.5 20.337 41.2366 19.7011 40.7678 19.2322C40.2989 18.7634 39.663 18.5 39 18.5ZM39 38.5C38.337 38.5 37.7011 38.7634 37.2322 39.2322C36.7634 39.7011 36.5 40.337 36.5 41C36.5 41.663 36.7634 42.2989 37.2322 42.7678C37.7011 43.2366 38.337 43.5 39 43.5C39.663 43.5 40.2989 43.2366 40.7678 42.7678C41.2366 42.2989 41.5 41.663 41.5 41C41.5 40.337 41.2366 39.7011 40.7678 39.2322C40.2989 38.7634 39.663 38.5 39 38.5ZM39 28.5C38.337 28.5 37.7011 28.7634 37.2322 29.2322C36.7634 29.7011 36.5 30.337 36.5 31C36.5 31.663 36.7634 32.2989 37.2322 32.7678C37.7011 33.2366 38.337 33.5 39 33.5C39.663 33.5 40.2989 33.2366 40.7678 32.7678C41.2366 32.2989 41.5 31.663 41.5 31C41.5 30.337 41.2366 29.7011 40.7678 29.2322C40.2989 28.7634 39.663 28.5 39 28.5ZM19 27.25C18.0054 27.25 17.0516 27.6451 16.3483 28.3483C15.6451 29.0516 15.25 30.0054 15.25 31C15.25 31.9946 15.6451 32.9484 16.3483 33.6517C17.0516 34.3549 18.0054 34.75 19 34.75C19.9946 34.75 20.9484 34.3549 21.6517 33.6517C22.3549 32.9484 22.75 31.9946 22.75 31C22.75 30.0054 22.3549 29.0516 21.6517 28.3483C20.9484 27.6451 19.9946 27.25 19 27.25ZM19 13.5C19.663 13.5 20.2989 13.2366 20.7678 12.7678C21.2366 12.2989 21.5 11.663 21.5 11C21.5 10.337 21.2366 9.70107 20.7678 9.23223C20.2989 8.76339 19.663 8.5 19 8.5C18.337 8.5 17.7011 8.76339 17.2322 9.23223C16.7634 9.70107 16.5 10.337 16.5 11C16.5 11.663 16.7634 12.2989 17.2322 12.7678C17.7011 13.2366 18.337 13.5 19 13.5ZM19 4.75C19.3315 4.75 19.6495 4.6183 19.8839 4.38388C20.1183 4.14946 20.25 3.83152 20.25 3.5C20.25 3.16848 20.1183 2.85054 19.8839 2.61612C19.6495 2.3817 19.3315 2.25 19 2.25C18.6685 2.25 18.3505 2.3817 18.1161 2.61612C17.8817 2.85054 17.75 3.16848 17.75 3.5C17.75 3.83152 17.8817 4.14946 18.1161 4.38388C18.3505 4.6183 18.6685 4.75 19 4.75ZM19 47.25C18.6685 47.25 18.3505 47.3817 18.1161 47.6161C17.8817 47.8505 17.75 48.1685 17.75 48.5C17.75 48.8315 17.8817 49.1495 18.1161 49.3839C18.3505 49.6183 18.6685 49.75 19 49.75C19.3315 49.75 19.6495 49.6183 19.8839 49.3839C20.1183 49.1495 20.25 48.8315 20.25 48.5C20.25 48.1685 20.1183 47.8505 19.8839 47.6161C19.6495 47.3817 19.3315 47.25 19 47.25ZM1.5 29.75C1.16848 29.75 0.850537 29.8817 0.616117 30.1161C0.381696 30.3505 0.25 30.6685 0.25 31C0.25 31.3315 0.381696 31.6495 0.616117 31.8839C0.850537 32.1183 1.16848 32.25 1.5 32.25C1.83152 32.25 2.14946 32.1183 2.38388 31.8839C2.6183 31.6495 2.75 31.3315 2.75 31C2.75 30.6685 2.6183 30.3505 2.38388 30.1161C2.14946 29.8817 1.83152 29.75 1.5 29.75ZM29 4.75C29.3315 4.75 29.6495 4.6183 29.8839 4.38388C30.1183 4.14946 30.25 3.83152 30.25 3.5C30.25 3.16848 30.1183 2.85054 29.8839 2.61612C29.6495 2.3817 29.3315 2.25 29 2.25C28.6685 2.25 28.3505 2.3817 28.1161 2.61612C27.8817 2.85054 27.75 3.16848 27.75 3.5C27.75 3.83152 27.8817 4.14946 28.1161 4.38388C28.3505 4.6183 28.6685 4.75 29 4.75ZM29 13.5C29.663 13.5 30.2989 13.2366 30.7678 12.7678C31.2366 12.2989 31.5 11.663 31.5 11C31.5 10.337 31.2366 9.70107 30.7678 9.23223C30.2989 8.76339 29.663 8.5 29 8.5C28.337 8.5 27.7011 8.76339 27.2322 9.23223C26.7634 9.70107 26.5 10.337 26.5 11C26.5 11.663 26.7634 12.2989 27.2322 12.7678C27.7011 13.2366 28.337 13.5 29 13.5ZM46.5 22.25C46.8315 22.25 47.1495 22.1183 47.3839 21.8839C47.6183 21.6495 47.75 21.3315 47.75 21C47.75 20.6685 47.6183 20.3505 47.3839 20.1161C47.1495 19.8817 46.8315 19.75 46.5 19.75C46.1685 19.75 45.8505 19.8817 45.6161 20.1161C45.3817 20.3505 45.25 20.6685 45.25 21C45.25 21.3315 45.3817 21.6495 45.6161 21.8839C45.8505 22.1183 46.1685 22.25 46.5 22.25ZM9 8.5C8.33696 8.5 7.70107 8.76339 7.23223 9.23223C6.76339 9.70107 6.5 10.337 6.5 11C6.5 11.663 6.76339 12.2989 7.23223 12.7678C7.70107 13.2366 8.33696 13.5 9 13.5C9.66304 13.5 10.2989 13.2366 10.7678 12.7678C11.2366 12.2989 11.5 11.663 11.5 11C11.5 10.337 11.2366 9.70107 10.7678 9.23223C10.2989 8.76339 9.66304 8.5 9 8.5ZM1.5 19.75C1.16848 19.75 0.850537 19.8817 0.616117 20.1161C0.381696 20.3505 0.25 20.6685 0.25 21C0.25 21.3315 0.381696 21.6495 0.616117 21.8839C0.850537 22.1183 1.16848 22.25 1.5 22.25C1.83152 22.25 2.14946 22.1183 2.38388 21.8839C2.6183 21.6495 2.75 21.3315 2.75 21C2.75 20.6685 2.6183 20.3505 2.38388 20.1161C2.14946 19.8817 1.83152 19.75 1.5 19.75ZM9 18.5C8.33696 18.5 7.70107 18.7634 7.23223 19.2322C6.76339 19.7011 6.5 20.337 6.5 21C6.5 21.663 6.76339 22.2989 7.23223 22.7678C7.70107 23.2366 8.33696 23.5 9 23.5C9.66304 23.5 10.2989 23.2366 10.7678 22.7678C11.2366 22.2989 11.5 21.663 11.5 21C11.5 20.337 11.2366 19.7011 10.7678 19.2322C10.2989 18.7634 9.66304 18.5 9 18.5ZM9 38.5C8.33696 38.5 7.70107 38.7634 7.23223 39.2322C6.76339 39.7011 6.5 40.337 6.5 41C6.5 41.663 6.76339 42.2989 7.23223 42.7678C7.70107 43.2366 8.33696 43.5 9 43.5C9.66304 43.5 10.2989 43.2366 10.7678 42.7678C11.2366 42.2989 11.5 41.663 11.5 41C11.5 40.337 11.2366 39.7011 10.7678 39.2322C10.2989 38.7634 9.66304 38.5 9 38.5ZM9 28.5C8.33696 28.5 7.70107 28.7634 7.23223 29.2322C6.76339 29.7011 6.5 30.337 6.5 31C6.5 31.663 6.76339 32.2989 7.23223 32.7678C7.70107 33.2366 8.33696 33.5 9 33.5C9.66304 33.5 10.2989 33.2366 10.7678 32.7678C11.2366 32.2989 11.5 31.663 11.5 31C11.5 30.337 11.2366 29.7011 10.7678 29.2322C10.2989 28.7634 9.66304 28.5 9 28.5Z" fill="black"/>
</svg>
