<svg width="20" height="16" viewBox="0 0 20 16" fill="none" xmlns="http://www.w3.org/2000/svg">
<path d="M16.3774 2.36761H14.8886L13.9499 1.42889C13.4064 0.885374 12.4526 0.490173 11.6838 0.490173H7.92894C7.16013 0.490173 6.20639 0.885374 5.66287 1.42889L4.72415 2.36761H3.23535C1.6827 2.36761 0.419189 3.63113 0.419189 5.18377V12.6935C0.419189 14.2462 1.6827 15.5097 3.23535 15.5097H16.3774C17.93 15.5097 19.1936 14.2462 19.1936 12.6935V5.18377C19.1936 3.63113 17.93 2.36761 16.3774 2.36761ZM9.80638 11.7548C8.93488 11.7547 8.09913 11.4084 7.48297 10.792C6.86682 10.1757 6.52074 9.33984 6.52086 8.46834C6.52099 7.59685 6.86731 6.76109 7.48364 6.14494C8.09997 5.52879 8.93582 5.1827 9.80731 5.18283C10.6788 5.18295 11.5146 5.52927 12.1307 6.1456C12.7469 6.76193 13.093 7.59778 13.0928 8.46928C13.0927 9.34078 12.7464 10.1765 12.1301 10.7927C11.5137 11.4088 10.6779 11.7549 9.80638 11.7548ZM15.4387 7.34188C15.2784 7.34188 15.1197 7.31032 14.9717 7.24899C14.8236 7.18766 14.6891 7.09777 14.5758 6.98445C14.4625 6.87113 14.3726 6.73661 14.3112 6.58855C14.2499 6.44049 14.2184 6.2818 14.2184 6.12155C14.2184 5.96129 14.2499 5.8026 14.3112 5.65454C14.3726 5.50649 14.4625 5.37196 14.5758 5.25864C14.6891 5.14532 14.8236 5.05543 14.9717 4.9941C15.1197 4.93278 15.2784 4.90121 15.4387 4.90121C15.7623 4.90121 16.0727 5.02978 16.3016 5.25864C16.5305 5.4875 16.659 5.79789 16.659 6.12155C16.659 6.4452 16.5305 6.7556 16.3016 6.98445C16.0727 7.21331 15.7623 7.34188 15.4387 7.34188Z" fill="white"/>
</svg>
