<svg width="27" height="27" viewBox="0 0 27 27" fill="none" xmlns="http://www.w3.org/2000/svg">
<path d="M10.7438 17.0438L20.2781 7.50942C20.5031 7.28442 20.7656 7.17192 21.0656 7.17192C21.3656 7.17192 21.6281 7.28442 21.8531 7.50942C22.0781 7.73442 22.1906 8.0018 22.1906 8.31155C22.1906 8.6213 22.0781 8.8883 21.8531 9.11255L11.5313 19.4625C11.3063 19.6875 11.0438 19.8 10.7438 19.8C10.4438 19.8 10.1813 19.6875 9.95627 19.4625L5.11877 14.625C4.89377 14.4 4.78577 14.133 4.79477 13.824C4.80377 13.515 4.92114 13.2477 5.14689 13.0219C5.37264 12.7962 5.64002 12.6837 5.94902 12.6844C6.25802 12.6852 6.52502 12.7977 6.75002 13.0219L10.7438 17.0438Z" fill="white"/>
</svg>
