<svg width="50" height="51" viewBox="0 0 50 51" fill="none" xmlns="http://www.w3.org/2000/svg">
<path d="M26.1299 1.43848C37.4737 1.43869 46.1669 11.429 44.6953 22.5947L44.6182 23.1279L44.2988 25.1123L41.1113 37.627C39.3515 44.5356 33.1302 49.3711 26.001 49.3711C18.9439 49.3709 12.7979 44.637 10.958 37.8818L10.7939 37.2217L7.86719 24.2969C5.21549 12.5839 14.1204 1.43848 26.1299 1.43848Z" stroke="#161616" stroke-width="2.87598"/>
<path d="M8.33492 14.38C8.33492 14.38 11.9161 8.62798 24.858 17.7352C37.7999 26.8425 44.0312 13.4213 44.0312 13.4213" stroke="#161616" stroke-width="2.87598"/>
<path d="M16.3354 32.0414C16.3354 32.0414 15.5761 34.319 16.3354 36.7765C17.0948 39.234 18.9931 40.6427 18.9931 40.6427" stroke="black" stroke-width="1.68798"/>
<path d="M35.6577 32.0414C35.6577 32.0414 36.417 34.319 35.6577 36.7765C34.8984 39.234 33.0001 40.6427 33.0001 40.6427" stroke="black" stroke-width="1.68798"/>
</svg>
