<svg width="24" height="24" viewBox="0 0 24 24" fill="none" xmlns="http://www.w3.org/2000/svg">
<path d="M17.9193 10.1948C17.9193 10.8885 17.3326 11.4508 16.6088 11.4508C15.8851 11.4508 15.2993 10.8875 15.2993 10.1948C15.2993 9.50199 15.886 8.9397 16.6088 8.9397C17.3316 8.9397 17.9193 9.50105 17.9193 10.1948Z" fill="white"/>
<path fill-rule="evenodd" clip-rule="evenodd" d="M17.4725 5.92833C16.4774 5.80066 15.2064 5.80066 13.6021 5.80066H10.0106C8.4054 5.80066 7.13437 5.80066 6.14027 5.92833C5.11707 6.06068 4.28724 6.33855 3.63389 6.96467C2.98054 7.59173 2.69048 8.38589 2.55249 9.36779C2.41919 10.3197 2.41919 11.5381 2.41919 13.0767V13.1705C2.41919 14.7091 2.41919 15.9276 2.55249 16.8813C2.69048 17.8623 2.98054 18.6564 3.63389 19.2825C4.28724 19.9096 5.11707 20.1875 6.14027 20.3189C7.13531 20.4484 8.40634 20.4484 10.0106 20.4484H13.6021C15.2074 20.4484 16.4784 20.4484 17.4725 20.3198C18.4957 20.1884 19.3255 19.9105 19.9789 19.2835C20.6322 18.6574 20.9223 17.8632 21.0603 16.8822C21.1936 15.9285 21.1936 14.71 21.1936 13.1715V13.0776C21.1936 11.5381 21.1936 10.3206 21.0603 9.36685C20.9223 8.38589 20.6322 7.59173 19.9789 6.96467C19.3255 6.33855 18.4957 6.06068 17.4725 5.92833ZM6.31487 7.17307C5.43623 7.28571 4.93026 7.4988 4.55947 7.8527C4.19055 8.20753 3.96901 8.69191 3.85074 9.53394C3.75686 10.2098 3.73527 11.0547 3.73058 12.1586L4.17178 11.7878C5.22784 10.9026 6.81803 10.9533 7.80931 11.9033L11.5548 15.4939C11.7404 15.6689 11.98 15.7758 12.2343 15.7969C12.4885 15.818 12.7424 15.7522 12.9544 15.6103L13.2154 15.4347C13.8276 15.0254 14.5565 14.8268 15.2918 14.8691C16.027 14.9115 16.7283 15.1924 17.2894 15.6694L19.5489 17.6201C19.6409 17.3722 19.7113 17.0756 19.762 16.7142C19.8822 15.8543 19.8841 14.7204 19.8841 13.1245C19.8841 11.5287 19.8822 10.3947 19.762 9.53394C19.6437 8.69191 19.4222 8.20753 19.0523 7.85364C18.6834 7.4988 18.1765 7.28665 17.2979 7.17307C16.4005 7.0576 15.2177 7.05573 13.5524 7.05573H10.0604C8.39507 7.05573 7.21229 7.0576 6.31487 7.17307Z" fill="white"/>
<path d="M16.5807 3.18535C15.7734 3.08209 14.7465 3.08209 13.4651 3.08209H10.5645C9.28405 3.08209 8.25615 3.08209 7.44885 3.18535C6.61339 3.2933 5.91686 3.52141 5.36396 4.04897C5.05881 4.34187 4.82612 4.70184 4.68433 5.10034C5.15744 4.88443 5.69251 4.75677 6.29329 4.67791C7.31086 4.54649 8.61192 4.54649 10.2547 4.54649H13.9288C15.5716 4.54649 16.8717 4.54649 17.8902 4.67791C18.414 4.74644 18.889 4.85252 19.3161 5.02149C19.1725 4.65442 18.9509 4.32292 18.6665 4.04991C18.1136 3.52141 17.4171 3.2933 16.5807 3.18629" fill="white"/>
</svg>
