<svg width="49" height="51" viewBox="0 0 49 51" fill="none" xmlns="http://www.w3.org/2000/svg">
<path d="M25.2383 1.43848C36.5821 1.43869 45.2753 11.429 43.8037 22.5947L43.7266 23.1279L43.4072 25.1123L40.2197 37.627C38.4599 44.5356 32.2386 49.3711 25.1094 49.3711C18.0523 49.3709 11.9063 44.637 10.0664 37.8818L9.90234 37.2217L6.97559 24.2969C4.32389 12.5839 13.2288 1.43848 25.2383 1.43848Z" stroke="#161616" stroke-width="2.87598"/>
<path d="M7.66922 14.3799C7.66922 14.3799 11.0245 8.62798 23.9664 17.7352C36.9083 26.8425 43.1397 13.4213 43.1397 13.4213" stroke="#161616" stroke-width="2.87598"/>
<path d="M38.5811 25.9421H37.8785C37.5531 25.7499 37.2072 25.5947 36.8473 25.4793C35.7129 25.1042 34.215 24.9108 32.3936 24.9108C30.5721 24.9108 29.0742 25.1042 27.9424 25.4793C27.0362 25.7816 26.6372 26.1148 26.5083 26.2444C26.0922 26.0454 25.6367 25.9421 25.1754 25.9421C24.7142 25.9421 24.2587 26.0454 23.8426 26.2444C23.7137 26.1155 23.3147 25.7816 22.4085 25.4793C21.2754 25.1042 19.7775 24.9108 17.9561 24.9108C16.1346 24.9108 14.6367 25.1042 13.5049 25.4793C13.145 25.5947 12.7991 25.7499 12.4737 25.9421H11.7686C11.4951 25.9421 11.2327 26.0507 11.0394 26.2441C10.846 26.4375 10.7373 26.6998 10.7373 26.9733C10.7373 27.2468 10.846 27.5091 11.0394 27.7025C11.2327 27.8959 11.4951 28.0046 11.7686 28.0046H11.7795C11.844 30.9346 12.1946 32.6955 12.9468 33.9491C13.4179 34.7585 14.1402 35.3921 15.0041 35.7538C15.7924 36.0915 16.7585 36.2559 17.9561 36.2559C19.5126 36.2559 21.7253 36.0167 22.9654 33.9504C23.5893 32.9101 23.9379 31.5211 24.0746 29.4051C24.12 29.2873 24.1434 29.1621 24.1436 29.0358C24.1436 28.7623 24.2522 28.5 24.4456 28.3066C24.639 28.1132 24.9013 28.0046 25.1748 28.0046C25.4483 28.0046 25.7106 28.1132 25.904 28.3066C26.0974 28.5 26.2061 28.7623 26.2061 29.0358C26.2064 29.1617 26.2298 29.2864 26.275 29.4039C26.4117 31.5199 26.7604 32.9088 27.3843 33.9491C27.8554 34.7585 28.5777 35.3921 29.4416 35.7538C30.2299 36.0915 31.196 36.2559 32.3936 36.2559C33.9501 36.2559 36.1628 36.0167 37.4029 33.9504C38.155 32.6968 38.5069 30.9359 38.5701 28.0059H38.5811C38.8546 28.0059 39.1169 27.8972 39.3103 27.7038C39.5037 27.5104 39.6123 27.2481 39.6123 26.9746C39.6123 26.7011 39.5037 26.4388 39.3103 26.2454C39.1169 26.052 38.8546 25.9434 38.5811 25.9434V25.9421Z" fill="black"/>
</svg>
