<svg width="50" height="53" viewBox="0 0 50 53" fill="none" xmlns="http://www.w3.org/2000/svg">
<path d="M25.5635 3.35583C36.9073 3.35605 45.6005 13.3464 44.1289 24.5121L44.0518 25.0453L43.7324 27.0297L40.5449 39.5443C38.7851 46.453 32.5638 51.2885 25.4346 51.2885C18.3775 51.2883 12.2315 46.5544 10.3916 39.7992L10.2275 39.139L7.30078 26.2142C4.64909 14.5013 13.554 3.35583 25.5635 3.35583Z" stroke="#161616" stroke-width="2.87598"/>
<path d="M7.99441 16.2972C7.99441 16.2972 11.3497 10.5453 24.2916 19.6525C37.2335 28.7598 43.4649 15.3386 43.4649 15.3386" stroke="#161616" stroke-width="2.87598"/>
<path d="M9.64653 10.7686C9.77175 10.5988 9.92771 10.4541 10.1063 10.3418L19.5125 4.42942C21.4591 3.20584 23.9905 3.47498 25.6364 5.08053C28.857 8.22227 26.5867 13.6855 22.088 13.6194L10.9792 13.4564C9.60691 13.4363 8.83185 11.873 9.64653 10.7686Z" fill="#161616"/>
</svg>
