<svg width="49" height="51" viewBox="0 0 49 51" fill="none" xmlns="http://www.w3.org/2000/svg">
<path d="M25.2383 1.43848C36.5821 1.43869 45.2753 11.429 43.8037 22.5947L43.7266 23.1279L43.4072 25.1123L40.2197 37.627C38.4599 44.5356 32.2386 49.3711 25.1094 49.3711C18.0523 49.3709 11.9063 44.637 10.0664 37.8818L9.90234 37.2217L6.97559 24.2969C4.32389 12.5839 13.2288 1.43848 25.2383 1.43848Z" stroke="#161616" stroke-width="2.87598"/>
<path d="M7.44332 14.38C7.44332 14.38 11.0245 8.62798 23.9664 17.7352C36.9083 26.8425 43.1396 13.4213 43.1396 13.4213" stroke="#161616" stroke-width="2.87598"/>
<path d="M44 35.5414C44 38.5789 41.5376 41.0414 38.5 41.0414C35.4624 41.0414 31.5 38.0789 31.5 35.0414C31.5 32.0038 35.9624 28.5414 39 28.5414C42.0376 28.5414 44 32.5038 44 35.5414Z" fill="black"/>
<rect x="36.03" y="37.5791" width="6.4088" height="11" rx="3.2044" transform="rotate(-39.1052 36.03 37.5791)" fill="black" stroke="white" stroke-width="2"/>
</svg>
