<svg width="53" height="52" viewBox="0 0 53 52" fill="none" xmlns="http://www.w3.org/2000/svg">
<path d="M26.1299 2.39709C37.4737 2.39731 46.1669 12.3877 44.6953 23.5533L44.6182 24.0865L44.2988 26.0709L41.1113 38.5856C39.3515 45.4942 33.1302 50.3297 26.001 50.3297C18.9439 50.3295 12.7979 45.5957 10.958 38.8405L10.7939 38.1803L7.86719 25.2555C5.21549 13.5425 14.1204 2.39709 26.1299 2.39709Z" stroke="#161616" stroke-width="2.87598"/>
<path d="M8.33492 15.3385C8.33492 15.3385 11.9161 9.58654 24.858 18.6938C37.7999 27.8011 44.0312 14.3799 44.0312 14.3799" stroke="#161616" stroke-width="2.87598"/>
<rect x="1.85034" y="25.2982" width="11.5039" height="21.2242" transform="rotate(-16.4056 1.85034 25.2982)" fill="white"/>
<rect width="11.5039" height="21.2242" transform="matrix(-0.959286 -0.282435 -0.282435 0.959286 52.4333 25.2982)" fill="white"/>
<path d="M1.17237 33.8338C0.797994 34.2082 0.797994 34.8152 1.17237 35.1896L7.27325 41.2905C7.64763 41.6648 8.25462 41.6648 8.629 41.2905C9.00338 40.9161 9.00338 40.3091 8.629 39.9347L3.206 34.5117L8.629 29.0887C9.00338 28.7143 9.00338 28.1074 8.629 27.733C8.25462 27.3586 7.64763 27.3586 7.27325 27.733L1.17237 33.8338ZM15.2715 34.5117V33.5531H1.85025V34.5117V35.4704H15.2715V34.5117Z" fill="#161616"/>
<path d="M50.4612 33.8338C50.8356 34.2082 50.8356 34.8152 50.4612 35.1896L44.3603 41.2905C43.9859 41.6648 43.3789 41.6648 43.0045 41.2905C42.6302 40.9161 42.6302 40.3091 43.0045 39.9347L48.4275 34.5117L43.0045 29.0887C42.6302 28.7143 42.6302 28.1074 43.0045 27.733C43.3789 27.3586 43.9859 27.3586 44.3603 27.733L50.4612 33.8338ZM36.3621 34.5117V33.5531H49.7833V34.5117V35.4704H36.3621V34.5117Z" fill="#161616"/>
</svg>
