<svg width="49" height="52" viewBox="0 0 49 52" fill="none" xmlns="http://www.w3.org/2000/svg">
<path d="M25.2383 2.39709C36.5821 2.39731 45.2753 12.3877 43.8037 23.5533L43.7266 24.0865L43.4072 26.0709L40.2197 38.5856C38.4599 45.4942 32.2386 50.3297 25.1094 50.3297C18.0523 50.3295 11.9063 45.5957 10.0664 38.8405L9.90234 38.1803L6.97559 25.2555C4.32389 13.5425 13.2288 2.39709 25.2383 2.39709Z" stroke="#161616" stroke-width="2.87598"/>
<path d="M7.66922 15.3385C7.66922 15.3385 11.0245 9.58653 23.9664 18.6938C36.9083 27.8011 43.1397 14.3799 43.1397 14.3799" stroke="#161616" stroke-width="2.87598"/>
<rect y="25.2982" width="11.5039" height="25.8651" transform="rotate(-16.4056 0 25.2982)" fill="white"/>
<g clip-path="url(#clip0_8_4855)">
<path d="M19.1731 40.7574C15.3163 40.9899 12.2288 44.0762 11.9969 47.933H11.9688C11.7363 44.0762 8.64942 40.9899 4.79321 40.7574V40.7293C8.65002 40.4962 11.7363 37.4099 11.9688 33.5531H11.9969C12.2294 37.4099 15.3163 40.4962 19.1731 40.7293V40.7574Z" fill="#161616"/>
</g>
<g clip-path="url(#clip1_8_4855)">
<path d="M10.5453 29.7261C8.48829 29.8501 6.84163 31.4961 6.71796 33.5531H6.70295C6.57896 31.4961 4.93262 29.8501 2.87598 29.7261V29.7111C4.93294 29.5868 6.57896 27.9408 6.70295 25.8838H6.71796C6.84195 27.9408 8.48829 29.5868 10.5453 29.7111V29.7261Z" fill="#161616"/>
</g>
<defs>
<clipPath id="clip0_8_4855">
<rect width="14.3799" height="14.3799" fill="white" transform="translate(4.79321 34.5117)"/>
</clipPath>
<clipPath id="clip1_8_4855">
<rect width="7.66928" height="7.66928" fill="white" transform="translate(2.87598 25.8838)"/>
</clipPath>
</defs>
</svg>
