<svg width="49" height="51" viewBox="0 0 49 51" fill="none" xmlns="http://www.w3.org/2000/svg">
<path d="M21 38C21 38 22.952 39.3978 25.5241 39.3978C28.0963 39.3978 30.0025 38 30.0025 38" stroke="black" stroke-width="1.68798"/>
<path d="M25.2383 1.43848C36.5821 1.43869 45.2753 11.429 43.8037 22.5947L43.7266 23.1279L43.4072 25.1123L40.2197 37.627C38.4599 44.5356 32.2386 49.3711 25.1094 49.3711C18.0523 49.3709 11.9063 44.637 10.0664 37.8818L9.90234 37.2217L6.97559 24.2969C4.32389 12.5839 13.2288 1.43848 25.2383 1.43848Z" stroke="#161616" stroke-width="2.87598"/>
<path d="M7.66922 14.3799C7.66922 14.3799 11.0245 8.62798 23.9664 17.7352C36.9083 26.8425 43.1397 13.4213 43.1397 13.4213" stroke="#161616" stroke-width="2.87598"/>
</svg>
