<svg width="23" height="23" viewBox="0 0 23 23" fill="none" xmlns="http://www.w3.org/2000/svg">
<path d="M5.74992 19.1668C5.22284 19.1668 4.77178 18.9793 4.39675 18.6042C4.02172 18.2292 3.83389 17.7778 3.83325 17.2501V15.3334C3.83325 15.0619 3.92525 14.8345 4.10925 14.6511C4.29325 14.4678 4.5207 14.3758 4.79159 14.3751C5.06247 14.3745 5.29024 14.4665 5.47488 14.6511C5.65952 14.8358 5.7512 15.0632 5.74992 15.3334V17.2501H17.2499V15.3334C17.2499 15.0619 17.3419 14.8345 17.5259 14.6511C17.7099 14.4678 17.9374 14.3758 18.2083 14.3751C18.4791 14.3745 18.7069 14.4665 18.8915 14.6511C19.0762 14.8358 19.1679 15.0632 19.1666 15.3334V17.2501C19.1666 17.7772 18.9791 18.2286 18.604 18.6042C18.229 18.9799 17.7776 19.1674 17.2499 19.1668H5.74992ZM10.5416 7.52303L8.74471 9.3199C8.55304 9.51157 8.3256 9.60357 8.06238 9.5959C7.79915 9.58824 7.57139 9.48825 7.37909 9.29595C7.20339 9.10428 7.11139 8.88067 7.10309 8.62511C7.09478 8.36956 7.18678 8.14595 7.37909 7.95428L10.8291 4.50428C10.9249 4.40845 11.0287 4.34072 11.1405 4.30111C11.2523 4.2615 11.3721 4.24138 11.4999 4.24074C11.6277 4.2401 11.7475 4.26022 11.8593 4.30111C11.9711 4.342 12.0749 4.40972 12.1708 4.50428L15.6208 7.95428C15.8124 8.14595 15.9044 8.36956 15.8968 8.62511C15.8891 8.88067 15.7971 9.10428 15.6208 9.29595C15.4291 9.48761 15.2016 9.5876 14.9384 9.5959C14.6752 9.60421 14.4474 9.51221 14.2551 9.3199L12.4583 7.52303V14.3751C12.4583 14.6466 12.3663 14.8744 12.1823 15.0584C11.9983 15.2424 11.7708 15.3341 11.4999 15.3334C11.229 15.3328 11.0016 15.2408 10.8176 15.0574C10.6336 14.8741 10.5416 14.6466 10.5416 14.3751V7.52303Z" fill="white"/>
</svg>
